{
	"asset":{
		"generator":"Khronos glTF Blender I/O v3.6.27",
		"version":"2.0"
	},
	"scene":0,
	"scenes":[
		{
			"name":"Scene",
			"nodes":[
				0
			]
		}
	],
	"nodes":[
		{
			"mesh":0,
			"name":"Cube.006"
		}
	],
	"materials":[
		{
			"doubleSided":true,
			"name":"Material",
			"pbrMetallicRoughness":{
				"baseColorFactor":[
					0.07035982608795166,
					0.1356332004070282,
					0.31854677200317383,
					1
				],
				"metallicFactor":0,
				"roughnessFactor":0.5
			}
		},
		{
			"alphaMode":"BLEND",
			"doubleSided":true,
			"name":"1920x1080",
			"pbrMetallicRoughness":{
				"baseColorTexture":{
					"index":0
				},
				"metallicFactor":0,
				"roughnessFactor":0.5
			}
		},
		{
			"doubleSided":true,
			"name":"Material.002",
			"pbrMetallicRoughness":{
				"baseColorFactor":[
					0.5028858780860901,
					0.5028859972953796,
					0.5028864741325378,
					1
				],
				"metallicFactor":0,
				"roughnessFactor":0.5
			}
		},
		{
			"alphaMode":"BLEND",
			"doubleSided":true,
			"name":"project-1",
			"pbrMetallicRoughness":{
				"baseColorTexture":{
					"index":1
				},
				"metallicFactor":0,
				"roughnessFactor":0.5
			}
		}
	],
	"meshes":[
		{
			"name":"Cube.007",
			"primitives":[
				{
					"attributes":{
						"POSITION":0,
						"NORMAL":1,
						"TEXCOORD_0":2
					},
					"indices":3,
					"material":0
				},
				{
					"attributes":{
						"POSITION":4,
						"NORMAL":5,
						"TEXCOORD_0":6
					},
					"indices":7,
					"material":1
				},
				{
					"attributes":{
						"POSITION":8,
						"NORMAL":9,
						"TEXCOORD_0":10
					},
					"indices":11,
					"material":2
				},
				{
					"attributes":{
						"POSITION":12,
						"NORMAL":13,
						"TEXCOORD_0":14
					},
					"indices":7,
					"material":3
				}
			]
		}
	],
	"textures":[
		{
			"sampler":0,
			"source":0
		},
		{
			"sampler":0,
			"source":1
		}
	],
	"images":[
		{
			"bufferView":8,
			"mimeType":"image/png",
			"name":"1920x1080"
		},
		{
			"bufferView":16,
			"mimeType":"image/png",
			"name":"project-1"
		}
	],
	"accessors":[
		{
			"bufferView":0,
			"componentType":5126,
			"count":47456,
			"max":[
				0.22694146633148193,
				1.0250544548034668,
				11.04716682434082
			],
			"min":[
				-0.23291747272014618,
				0.4253937900066376,
				-0.5729086399078369
			],
			"type":"VEC3"
		},
		{
			"bufferView":1,
			"componentType":5126,
			"count":47456,
			"type":"VEC3"
		},
		{
			"bufferView":2,
			"componentType":5126,
			"count":47456,
			"type":"VEC2"
		},
		{
			"bufferView":3,
			"componentType":5123,
			"count":71856,
			"type":"SCALAR"
		},
		{
			"bufferView":4,
			"componentType":5126,
			"count":16,
			"max":[
				0.12366311252117157,
				0.9549976587295532,
				10.937132835388184
			],
			"min":[
				-0.18199436366558075,
				0.5334086418151855,
				-0.46287450194358826
			],
			"type":"VEC3"
		},
		{
			"bufferView":5,
			"componentType":5126,
			"count":16,
			"type":"VEC3"
		},
		{
			"bufferView":6,
			"componentType":5126,
			"count":16,
			"type":"VEC2"
		},
		{
			"bufferView":7,
			"componentType":5123,
			"count":24,
			"type":"SCALAR"
		},
		{
			"bufferView":9,
			"componentType":5126,
			"count":2236,
			"max":[
				0.07228134572505951,
				0.8153723478317261,
				11.065155982971191
			],
			"min":[
				0.03536125272512436,
				0.7784522771835327,
				0.5539777874946594
			],
			"type":"VEC3"
		},
		{
			"bufferView":10,
			"componentType":5126,
			"count":2236,
			"type":"VEC3"
		},
		{
			"bufferView":11,
			"componentType":5126,
			"count":2236,
			"type":"VEC2"
		},
		{
			"bufferView":12,
			"componentType":5123,
			"count":11520,
			"type":"SCALAR"
		},
		{
			"bufferView":13,
			"componentType":5126,
			"count":16,
			"max":[
				0.10733865201473236,
				0.9549975395202637,
				10.942708969116211
			],
			"min":[
				-0.1983189433813095,
				0.5334084033966064,
				-0.45729923248291016
			],
			"type":"VEC3"
		},
		{
			"bufferView":14,
			"componentType":5126,
			"count":16,
			"type":"VEC3"
		},
		{
			"bufferView":15,
			"componentType":5126,
			"count":16,
			"type":"VEC2"
		}
	],
	"bufferViews":[
		{
			"buffer":0,
			"byteLength":569472,
			"byteOffset":0,
			"target":34962
		},
		{
			"buffer":0,
			"byteLength":569472,
			"byteOffset":569472,
			"target":34962
		},
		{
			"buffer":0,
			"byteLength":379648,
			"byteOffset":1138944,
			"target":34962
		},
		{
			"buffer":0,
			"byteLength":143712,
			"byteOffset":1518592,
			"target":34963
		},
		{
			"buffer":0,
			"byteLength":192,
			"byteOffset":1662304,
			"target":34962
		},
		{
			"buffer":0,
			"byteLength":192,
			"byteOffset":1662496,
			"target":34962
		},
		{
			"buffer":0,
			"byteLength":128,
			"byteOffset":1662688,
			"target":34962
		},
		{
			"buffer":0,
			"byteLength":48,
			"byteOffset":1662816,
			"target":34963
		},
		{
			"buffer":0,
			"byteLength":186520,
			"byteOffset":1662864
		},
		{
			"buffer":0,
			"byteLength":26832,
			"byteOffset":1849384,
			"target":34962
		},
		{
			"buffer":0,
			"byteLength":26832,
			"byteOffset":1876216,
			"target":34962
		},
		{
			"buffer":0,
			"byteLength":17888,
			"byteOffset":1903048,
			"target":34962
		},
		{
			"buffer":0,
			"byteLength":23040,
			"byteOffset":1920936,
			"target":34963
		},
		{
			"buffer":0,
			"byteLength":192,
			"byteOffset":1943976,
			"target":34962
		},
		{
			"buffer":0,
			"byteLength":192,
			"byteOffset":1944168,
			"target":34962
		},
		{
			"buffer":0,
			"byteLength":128,
			"byteOffset":1944360,
			"target":34962
		},
		{
			"buffer":0,
			"byteLength":133968,
			"byteOffset":1944488
		}
	],
	"samplers":[
		{
			"magFilter":9729,
			"minFilter":9987,
			"wrapS":33071,
			"wrapT":33071
		}
	],
	"buffers":[
		{
			"byteLength":2078456,
			"uri":"data:application/octet-stream;base64,"
		}
	]
}
