{
	"asset":{
		"generator":"Khronos glTF Blender I/O v3.6.27",
		"version":"2.0"
	},
	"extensionsUsed":[
		"KHR_materials_clearcoat"
	],
	"scene":0,
	"scenes":[
		{
			"name":"Scene",
			"nodes":[
				19
			]
		}
	],
	"nodes":[
		{
			"mesh":0,
			"name":"Cockpit_Glass_0"
		},
		{
			"children":[
				0
			],
			"name":"Cockpit",
			"translation":[
				0,
				0.5114662051200867,
				-1.1833809614181519
			]
		},
		{
			"name":"LeftGunPoint",
			"translation":[
				1.4890105724334717,
				-0.164779931306839,
				0.8188501596450806
			]
		},
		{
			"mesh":1,
			"name":"Missile1_Plane_0"
		},
		{
			"children":[
				3
			],
			"name":"Missile1",
			"translation":[
				2.266080379486084,
				0.007693767547607422,
				0.4103538990020752
			]
		},
		{
			"mesh":2,
			"name":"Missile2_Plane_0"
		},
		{
			"children":[
				5
			],
			"name":"Missile2",
			"translation":[
				1.885486364364624,
				-0.047193244099617004,
				0.41035401821136475
			]
		},
		{
			"mesh":3,
			"name":"Missile3_Plane_0"
		},
		{
			"children":[
				7
			],
			"name":"Missile3",
			"translation":[
				-1.8854867219924927,
				-0.04719321429729462,
				0.41035521030426025
			]
		},
		{
			"mesh":4,
			"name":"Missile4_Plane_0"
		},
		{
			"children":[
				9
			],
			"name":"Missile4",
			"translation":[
				-2.266080141067505,
				0.007693767547607422,
				0.41035544872283936
			]
		},
		{
			"mesh":5,
			"name":"PlaneBody_Plane_0"
		},
		{
			"mesh":6,
			"name":"Propeller_Plane_0"
		},
		{
			"children":[
				12
			],
			"name":"Propeller",
			"translation":[
				0,
				-0.26809781789779663,
				1.8750817775726318
			]
		},
		{
			"name":"RIghtGunPoint",
			"translation":[
				-1.4890105724334717,
				-0.164779931306839,
				0.818851113319397
			]
		},
		{
			"children":[
				1,
				2,
				4,
				6,
				8,
				10,
				11,
				13,
				14
			],
			"name":"PlaneBody"
		},
		{
			"children":[
				15
			],
			"name":"RootNode"
		},
		{
			"children":[
				16
			],
			"name":"Object_2"
		},
		{
			"children":[
				17
			],
			"name":"8bb76f45372a4765a7d44097319fb390.fbx",
			"rotation":[
				0.70710688829422,
				0,
				0,
				0.7071066498756409
			]
		},
		{
			"children":[
				18
			],
			"name":"Sketchfab_model",
			"rotation":[
				-0.70710688829422,
				0,
				0,
				0.7071066498756409
			]
		}
	],
	"animations":[
		{
			"channels":[
				{
					"sampler":0,
					"target":{
						"node":19,
						"path":"translation"
					}
				}
			],
			"name":"Sketchfab_modelAction",
			"samplers":[
				{
					"input":26,
					"interpolation":"LINEAR",
					"output":27
				}
			]
		},
		{
			"channels":[
				{
					"sampler":0,
					"target":{
						"node":18,
						"path":"translation"
					}
				}
			],
			"name":"8bb76f45372a4765a7d44097319fb390.fbxAction",
			"samplers":[
				{
					"input":28,
					"interpolation":"STEP",
					"output":29
				}
			]
		},
		{
			"channels":[
				{
					"sampler":0,
					"target":{
						"node":17,
						"path":"translation"
					}
				}
			],
			"name":"Object_2Action",
			"samplers":[
				{
					"input":28,
					"interpolation":"STEP",
					"output":30
				}
			]
		},
		{
			"channels":[
				{
					"sampler":0,
					"target":{
						"node":16,
						"path":"translation"
					}
				}
			],
			"name":"RootNodeAction",
			"samplers":[
				{
					"input":28,
					"interpolation":"STEP",
					"output":31
				}
			]
		},
		{
			"channels":[
				{
					"sampler":0,
					"target":{
						"node":15,
						"path":"translation"
					}
				}
			],
			"name":"PlaneBodyAction",
			"samplers":[
				{
					"input":28,
					"interpolation":"STEP",
					"output":32
				}
			]
		},
		{
			"channels":[
				{
					"sampler":0,
					"target":{
						"node":1,
						"path":"translation"
					}
				}
			],
			"name":"CockpitAction",
			"samplers":[
				{
					"input":28,
					"interpolation":"STEP",
					"output":33
				}
			]
		},
		{
			"channels":[
				{
					"sampler":0,
					"target":{
						"node":0,
						"path":"translation"
					}
				}
			],
			"name":"Cockpit_Glass_0Action",
			"samplers":[
				{
					"input":28,
					"interpolation":"STEP",
					"output":34
				}
			]
		},
		{
			"channels":[
				{
					"sampler":0,
					"target":{
						"node":2,
						"path":"translation"
					}
				}
			],
			"name":"LeftGunPointAction",
			"samplers":[
				{
					"input":28,
					"interpolation":"STEP",
					"output":35
				}
			]
		},
		{
			"channels":[
				{
					"sampler":0,
					"target":{
						"node":4,
						"path":"translation"
					}
				}
			],
			"name":"Missile1Action",
			"samplers":[
				{
					"input":28,
					"interpolation":"STEP",
					"output":36
				}
			]
		},
		{
			"channels":[
				{
					"sampler":0,
					"target":{
						"node":3,
						"path":"translation"
					}
				}
			],
			"name":"Missile1_Plane_0Action",
			"samplers":[
				{
					"input":28,
					"interpolation":"STEP",
					"output":37
				}
			]
		},
		{
			"channels":[
				{
					"sampler":0,
					"target":{
						"node":6,
						"path":"translation"
					}
				}
			],
			"name":"Missile2Action",
			"samplers":[
				{
					"input":28,
					"interpolation":"STEP",
					"output":38
				}
			]
		},
		{
			"channels":[
				{
					"sampler":0,
					"target":{
						"node":5,
						"path":"translation"
					}
				}
			],
			"name":"Missile2_Plane_0Action",
			"samplers":[
				{
					"input":28,
					"interpolation":"STEP",
					"output":39
				}
			]
		},
		{
			"channels":[
				{
					"sampler":0,
					"target":{
						"node":8,
						"path":"translation"
					}
				}
			],
			"name":"Missile3Action",
			"samplers":[
				{
					"input":28,
					"interpolation":"STEP",
					"output":40
				}
			]
		},
		{
			"channels":[
				{
					"sampler":0,
					"target":{
						"node":7,
						"path":"translation"
					}
				}
			],
			"name":"Missile3_Plane_0Action",
			"samplers":[
				{
					"input":28,
					"interpolation":"STEP",
					"output":41
				}
			]
		},
		{
			"channels":[
				{
					"sampler":0,
					"target":{
						"node":10,
						"path":"translation"
					}
				}
			],
			"name":"Missile4Action",
			"samplers":[
				{
					"input":28,
					"interpolation":"STEP",
					"output":42
				}
			]
		},
		{
			"channels":[
				{
					"sampler":0,
					"target":{
						"node":9,
						"path":"translation"
					}
				}
			],
			"name":"Missile4_Plane_0Action",
			"samplers":[
				{
					"input":28,
					"interpolation":"STEP",
					"output":43
				}
			]
		},
		{
			"channels":[
				{
					"sampler":0,
					"target":{
						"node":11,
						"path":"translation"
					}
				}
			],
			"name":"PlaneBody_Plane_0Action",
			"samplers":[
				{
					"input":28,
					"interpolation":"STEP",
					"output":44
				}
			]
		},
		{
			"channels":[
				{
					"sampler":0,
					"target":{
						"node":13,
						"path":"translation"
					}
				},
				{
					"sampler":1,
					"target":{
						"node":13,
						"path":"rotation"
					}
				}
			],
			"name":"PropellerAction.001",
			"samplers":[
				{
					"input":28,
					"interpolation":"STEP",
					"output":45
				},
				{
					"input":26,
					"interpolation":"LINEAR",
					"output":46
				}
			]
		},
		{
			"channels":[
				{
					"sampler":0,
					"target":{
						"node":12,
						"path":"translation"
					}
				}
			],
			"name":"Propeller_Plane_0Action",
			"samplers":[
				{
					"input":28,
					"interpolation":"LINEAR",
					"output":47
				}
			]
		},
		{
			"channels":[
				{
					"sampler":0,
					"target":{
						"node":14,
						"path":"translation"
					}
				}
			],
			"name":"RIghtGunPointAction",
			"samplers":[
				{
					"input":28,
					"interpolation":"STEP",
					"output":48
				}
			]
		}
	],
	"materials":[
		{
			"alphaMode":"BLEND",
			"extensions":{
				"KHR_materials_clearcoat":{
					"clearcoatFactor":1,
					"clearcoatRoughnessFactor":0.03999999910593033
				}
			},
			"name":"Glass",
			"pbrMetallicRoughness":{
				"baseColorFactor":[
					0.12111900001764297,
					0.5098720192909241,
					0.800000011920929,
					1
				],
				"baseColorTexture":{
					"index":0
				},
				"metallicFactor":0,
				"roughnessFactor":0.8997860550880432
			}
		},
		{
			"doubleSided":true,
			"name":"Plane",
			"pbrMetallicRoughness":{
				"baseColorTexture":{
					"index":1
				},
				"metallicFactor":0,
				"roughnessFactor":0.372032105922699
			}
		}
	],
	"meshes":[
		{
			"name":"Cockpit_Glass_0",
			"primitives":[
				{
					"attributes":{
						"POSITION":0,
						"NORMAL":1,
						"TEXCOORD_0":2
					},
					"indices":3,
					"material":0
				}
			]
		},
		{
			"name":"Missile1_Plane_0",
			"primitives":[
				{
					"attributes":{
						"POSITION":4,
						"NORMAL":5,
						"TEXCOORD_0":6
					},
					"indices":7,
					"material":1
				}
			]
		},
		{
			"name":"Missile2_Plane_0",
			"primitives":[
				{
					"attributes":{
						"POSITION":8,
						"NORMAL":9,
						"TEXCOORD_0":10
					},
					"indices":7,
					"material":1
				}
			]
		},
		{
			"name":"Missile3_Plane_0",
			"primitives":[
				{
					"attributes":{
						"POSITION":11,
						"NORMAL":12,
						"TEXCOORD_0":13
					},
					"indices":14,
					"material":1
				}
			]
		},
		{
			"name":"Missile4_Plane_0",
			"primitives":[
				{
					"attributes":{
						"POSITION":15,
						"NORMAL":16,
						"TEXCOORD_0":17
					},
					"indices":14,
					"material":1
				}
			]
		},
		{
			"name":"PlaneBody_Plane_0",
			"primitives":[
				{
					"attributes":{
						"POSITION":18,
						"NORMAL":19,
						"TEXCOORD_0":20
					},
					"indices":21,
					"material":1
				}
			]
		},
		{
			"name":"Propeller_Plane_0",
			"primitives":[
				{
					"attributes":{
						"POSITION":22,
						"NORMAL":23,
						"TEXCOORD_0":24
					},
					"indices":25,
					"material":1
				}
			]
		}
	],
	"textures":[
		{
			"sampler":0,
			"source":0
		},
		{
			"sampler":0,
			"source":1
		}
	],
	"images":[
		{
			"bufferView":4,
			"mimeType":"image/png",
			"name":"Glass_baseColor"
		},
		{
			"bufferView":9,
			"mimeType":"image/png",
			"name":"Plane_baseColor"
		}
	],
	"accessors":[
		{
			"bufferView":0,
			"componentType":5126,
			"count":34,
			"max":[
				0.38897666335105896,
				0.3571564555168152,
				1.787880301475525
			],
			"min":[
				-0.38897594809532166,
				-0.048895012587308884,
				0
			],
			"type":"VEC3"
		},
		{
			"bufferView":1,
			"componentType":5126,
			"count":34,
			"type":"VEC3"
		},
		{
			"bufferView":2,
			"componentType":5126,
			"count":34,
			"type":"VEC2"
		},
		{
			"bufferView":3,
			"componentType":5123,
			"count":192,
			"type":"SCALAR"
		},
		{
			"bufferView":5,
			"componentType":5126,
			"count":76,
			"max":[
				0.16793474555015564,
				0.07226773351430893,
				0.2203461080789566
			],
			"min":[
				-0.16840191185474396,
				-0.07799044251441956,
				-0.19763711094856262
			],
			"type":"VEC3"
		},
		{
			"bufferView":6,
			"componentType":5126,
			"count":76,
			"type":"VEC3"
		},
		{
			"bufferView":7,
			"componentType":5126,
			"count":76,
			"type":"VEC2"
		},
		{
			"bufferView":8,
			"componentType":5123,
			"count":204,
			"type":"SCALAR"
		},
		{
			"bufferView":10,
			"componentType":5126,
			"count":76,
			"max":[
				0.16768686473369598,
				0.07261379063129425,
				0.2203461229801178
			],
			"min":[
				-0.16819632053375244,
				-0.07832873612642288,
				-0.1976371705532074
			],
			"type":"VEC3"
		},
		{
			"bufferView":11,
			"componentType":5126,
			"count":76,
			"type":"VEC3"
		},
		{
			"bufferView":12,
			"componentType":5126,
			"count":76,
			"type":"VEC2"
		},
		{
			"bufferView":13,
			"componentType":5126,
			"count":76,
			"max":[
				0.16819612681865692,
				0.07261378318071365,
				0.2203461229801178
			],
			"min":[
				-0.16768702864646912,
				-0.07832874357700348,
				-0.1976371705532074
			],
			"type":"VEC3"
		},
		{
			"bufferView":14,
			"componentType":5126,
			"count":76,
			"type":"VEC3"
		},
		{
			"bufferView":15,
			"componentType":5126,
			"count":76,
			"type":"VEC2"
		},
		{
			"bufferView":16,
			"componentType":5123,
			"count":204,
			"type":"SCALAR"
		},
		{
			"bufferView":17,
			"componentType":5126,
			"count":76,
			"max":[
				0.16840201616287231,
				0.07226774841547012,
				0.2203461080789566
			],
			"min":[
				-0.1679346263408661,
				-0.07799045741558075,
				-0.19763709604740143
			],
			"type":"VEC3"
		},
		{
			"bufferView":18,
			"componentType":5126,
			"count":76,
			"type":"VEC3"
		},
		{
			"bufferView":19,
			"componentType":5126,
			"count":76,
			"type":"VEC2"
		},
		{
			"bufferView":20,
			"componentType":5126,
			"count":550,
			"max":[
				2.974813461303711,
				1.1362580060958862,
				1.7473219633102417
			],
			"min":[
				-2.9748144149780273,
				-1.115963101387024,
				-2.7003912925720215
			],
			"type":"VEC3"
		},
		{
			"bufferView":21,
			"componentType":5126,
			"count":550,
			"type":"VEC3"
		},
		{
			"bufferView":22,
			"componentType":5126,
			"count":550,
			"type":"VEC2"
		},
		{
			"bufferView":23,
			"componentType":5123,
			"count":1434,
			"type":"SCALAR"
		},
		{
			"bufferView":24,
			"componentType":5126,
			"count":143,
			"max":[
				1.1733200550079346,
				0.9076930284500122,
				0.2126210629940033
			],
			"min":[
				-1.2969332933425903,
				-1.3665138483047485,
				-0.26048973202705383
			],
			"type":"VEC3"
		},
		{
			"bufferView":25,
			"componentType":5126,
			"count":143,
			"type":"VEC3"
		},
		{
			"bufferView":26,
			"componentType":5126,
			"count":143,
			"type":"VEC2"
		},
		{
			"bufferView":27,
			"componentType":5123,
			"count":282,
			"type":"SCALAR"
		},
		{
			"bufferView":28,
			"componentType":5126,
			"count":25,
			"max":[
				1
			],
			"min":[
				0
			],
			"type":"SCALAR"
		},
		{
			"bufferView":29,
			"componentType":5126,
			"count":25,
			"type":"VEC3"
		},
		{
			"bufferView":30,
			"componentType":5126,
			"count":2,
			"max":[
				1
			],
			"min":[
				0
			],
			"type":"SCALAR"
		},
		{
			"bufferView":31,
			"componentType":5126,
			"count":2,
			"type":"VEC3"
		},
		{
			"bufferView":32,
			"componentType":5126,
			"count":2,
			"type":"VEC3"
		},
		{
			"bufferView":33,
			"componentType":5126,
			"count":2,
			"type":"VEC3"
		},
		{
			"bufferView":34,
			"componentType":5126,
			"count":2,
			"type":"VEC3"
		},
		{
			"bufferView":35,
			"componentType":5126,
			"count":2,
			"type":"VEC3"
		},
		{
			"bufferView":36,
			"componentType":5126,
			"count":2,
			"type":"VEC3"
		},
		{
			"bufferView":37,
			"componentType":5126,
			"count":2,
			"type":"VEC3"
		},
		{
			"bufferView":38,
			"componentType":5126,
			"count":2,
			"type":"VEC3"
		},
		{
			"bufferView":39,
			"componentType":5126,
			"count":2,
			"type":"VEC3"
		},
		{
			"bufferView":40,
			"componentType":5126,
			"count":2,
			"type":"VEC3"
		},
		{
			"bufferView":41,
			"componentType":5126,
			"count":2,
			"type":"VEC3"
		},
		{
			"bufferView":42,
			"componentType":5126,
			"count":2,
			"type":"VEC3"
		},
		{
			"bufferView":43,
			"componentType":5126,
			"count":2,
			"type":"VEC3"
		},
		{
			"bufferView":44,
			"componentType":5126,
			"count":2,
			"type":"VEC3"
		},
		{
			"bufferView":45,
			"componentType":5126,
			"count":2,
			"type":"VEC3"
		},
		{
			"bufferView":46,
			"componentType":5126,
			"count":2,
			"type":"VEC3"
		},
		{
			"bufferView":47,
			"componentType":5126,
			"count":2,
			"type":"VEC3"
		},
		{
			"bufferView":48,
			"componentType":5126,
			"count":25,
			"type":"VEC4"
		},
		{
			"bufferView":49,
			"componentType":5126,
			"count":2,
			"type":"VEC3"
		},
		{
			"bufferView":50,
			"componentType":5126,
			"count":2,
			"type":"VEC3"
		}
	],
	"bufferViews":[
		{
			"buffer":0,
			"byteLength":408,
			"byteOffset":0,
			"target":34962
		},
		{
			"buffer":0,
			"byteLength":408,
			"byteOffset":408,
			"target":34962
		},
		{
			"buffer":0,
			"byteLength":272,
			"byteOffset":816,
			"target":34962
		},
		{
			"buffer":0,
			"byteLength":384,
			"byteOffset":1088,
			"target":34963
		},
		{
			"buffer":0,
			"byteLength":73,
			"byteOffset":1472
		},
		{
			"buffer":0,
			"byteLength":912,
			"byteOffset":1548,
			"target":34962
		},
		{
			"buffer":0,
			"byteLength":912,
			"byteOffset":2460,
			"target":34962
		},
		{
			"buffer":0,
			"byteLength":608,
			"byteOffset":3372,
			"target":34962
		},
		{
			"buffer":0,
			"byteLength":408,
			"byteOffset":3980,
			"target":34963
		},
		{
			"buffer":0,
			"byteLength":776,
			"byteOffset":4388
		},
		{
			"buffer":0,
			"byteLength":912,
			"byteOffset":5164,
			"target":34962
		},
		{
			"buffer":0,
			"byteLength":912,
			"byteOffset":6076,
			"target":34962
		},
		{
			"buffer":0,
			"byteLength":608,
			"byteOffset":6988,
			"target":34962
		},
		{
			"buffer":0,
			"byteLength":912,
			"byteOffset":7596,
			"target":34962
		},
		{
			"buffer":0,
			"byteLength":912,
			"byteOffset":8508,
			"target":34962
		},
		{
			"buffer":0,
			"byteLength":608,
			"byteOffset":9420,
			"target":34962
		},
		{
			"buffer":0,
			"byteLength":408,
			"byteOffset":10028,
			"target":34963
		},
		{
			"buffer":0,
			"byteLength":912,
			"byteOffset":10436,
			"target":34962
		},
		{
			"buffer":0,
			"byteLength":912,
			"byteOffset":11348,
			"target":34962
		},
		{
			"buffer":0,
			"byteLength":608,
			"byteOffset":12260,
			"target":34962
		},
		{
			"buffer":0,
			"byteLength":6600,
			"byteOffset":12868,
			"target":34962
		},
		{
			"buffer":0,
			"byteLength":6600,
			"byteOffset":19468,
			"target":34962
		},
		{
			"buffer":0,
			"byteLength":4400,
			"byteOffset":26068,
			"target":34962
		},
		{
			"buffer":0,
			"byteLength":2868,
			"byteOffset":30468,
			"target":34963
		},
		{
			"buffer":0,
			"byteLength":1716,
			"byteOffset":33336,
			"target":34962
		},
		{
			"buffer":0,
			"byteLength":1716,
			"byteOffset":35052,
			"target":34962
		},
		{
			"buffer":0,
			"byteLength":1144,
			"byteOffset":36768,
			"target":34962
		},
		{
			"buffer":0,
			"byteLength":564,
			"byteOffset":37912,
			"target":34963
		},
		{
			"buffer":0,
			"byteLength":100,
			"byteOffset":38476
		},
		{
			"buffer":0,
			"byteLength":300,
			"byteOffset":38576
		},
		{
			"buffer":0,
			"byteLength":8,
			"byteOffset":38876
		},
		{
			"buffer":0,
			"byteLength":24,
			"byteOffset":38884
		},
		{
			"buffer":0,
			"byteLength":24,
			"byteOffset":38908
		},
		{
			"buffer":0,
			"byteLength":24,
			"byteOffset":38932
		},
		{
			"buffer":0,
			"byteLength":24,
			"byteOffset":38956
		},
		{
			"buffer":0,
			"byteLength":24,
			"byteOffset":38980
		},
		{
			"buffer":0,
			"byteLength":24,
			"byteOffset":39004
		},
		{
			"buffer":0,
			"byteLength":24,
			"byteOffset":39028
		},
		{
			"buffer":0,
			"byteLength":24,
			"byteOffset":39052
		},
		{
			"buffer":0,
			"byteLength":24,
			"byteOffset":39076
		},
		{
			"buffer":0,
			"byteLength":24,
			"byteOffset":39100
		},
		{
			"buffer":0,
			"byteLength":24,
			"byteOffset":39124
		},
		{
			"buffer":0,
			"byteLength":24,
			"byteOffset":39148
		},
		{
			"buffer":0,
			"byteLength":24,
			"byteOffset":39172
		},
		{
			"buffer":0,
			"byteLength":24,
			"byteOffset":39196
		},
		{
			"buffer":0,
			"byteLength":24,
			"byteOffset":39220
		},
		{
			"buffer":0,
			"byteLength":24,
			"byteOffset":39244
		},
		{
			"buffer":0,
			"byteLength":24,
			"byteOffset":39268
		},
		{
			"buffer":0,
			"byteLength":400,
			"byteOffset":39292
		},
		{
			"buffer":0,
			"byteLength":24,
			"byteOffset":39692
		},
		{
			"buffer":0,
			"byteLength":24,
			"byteOffset":39716
		}
	],
	"samplers":[
		{
			"magFilter":9729,
			"minFilter":9987
		}
	],
	"buffers":[
		{
			"byteLength":39740,
			"uri":"data:application/octet-stream;base64,"
		}
	]
}
